<?xml version="1.0" standalone="no"?><!DOCTYPE svg PUBLIC "-//W3C//DTD SVG 1.1//EN" "http://www.w3.org/Graphics/SVG/1.1/DTD/svg11.dtd"><svg t="1623116561628" class="icon" viewBox="0 0 1940 1024" version="1.1" xmlns="http://www.w3.org/2000/svg" p-id="4716" xmlns:xlink="http://www.w3.org/1999/xlink" width="242.5" height="128"><defs><style type="text/css"></style></defs><path d="M1827.570526 327.68V163.84c0-90.112-78.309053-163.84-174.08-163.84H174.08C78.309053 0 0 73.728 0 163.84v655.252211c0 90.112 78.309053 163.84 174.08 163.84h1479.410526c95.770947 0 174.08-73.728 174.08-163.84v-163.84c47.912421 0 87.04-36.810105 87.04-81.92V409.6c0-45.056-39.127579-81.92-87.04-81.92zM1740.584421 409.6v409.546105c0 45.002105-39.181474 81.866105-87.04 81.866106H174.08c-47.912421 0-87.04-36.864-87.04-81.92V163.84c0-45.056 39.127579-81.92 87.04-81.92h1479.410526c47.966316 0 87.093895 36.864 87.093895 81.92V409.6z" fill="#272636" p-id="4717"></path></svg>